<svg id="Capa_1" enable-background="new 0 0 438.359 438.359" height="512" viewBox="0 0 438.359 438.359" width="512" xmlns="http://www.w3.org/2000/svg"><g><g><path d="m238.952 411.319h-36.019l10.277-256.121h15.465z" fill="#d5d6db"/><g fill="#c5c6c9"><path d="m244.14 129.457-11.574-126.714c-.154-1.562-1.473-2.752-3.043-2.743h-9.528c-1.551.018-2.84 1.2-2.993 2.743l-13.819 148.913h26.74z"/><path d="m364.417 238.61-131.702-89.797-4.291 27.787 12.123 23.248 116.287 52.182c1.41.64 3.077.1 3.842-1.247l4.689-8.281c.703-1.353.297-3.015-.948-3.892z"/><path d="m176.643 159.39-102.768 75.13c-1.247.931-1.592 2.652-.799 3.991l4.989 8.131c.818 1.344 2.514 1.858 3.941 1.197l146.418-70.54-17.561-17.91c0 .001-34.22.001-34.22.001z"/></g><circle cx="218.648" cy="165.175" fill="#e1e6e9" r="22.1"/><path d="m315.329 433.768c-9.977-26.938-48.291-47.094-94.386-47.094s-84.558 19.954-94.386 47.094c-.661 1.753.223 3.709 1.977 4.372.373.141.768.214 1.166.219h182.486c1.874-.018 3.378-1.549 3.361-3.423-.004-.4-.079-.795-.218-1.168z" fill="#5fa348"/></g></g></svg>